<svg width="1440" height="407" viewBox="0 0 1440 407" fill="none" xmlns="http://www.w3.org/2000/svg">
<path fill-rule="evenodd" clip-rule="evenodd" d="M1440 0L1392.03 6.67062C1344 13.2783 1247.99 26.5566 1151.99 66.3286C1055.98 106.101 959.977 221.355 863.973 221.355C767.968 221.355 672.032 155.027 576.027 161.634C480.023 168.305 384.018 247.849 288.014 247.849C192.009 247.849 108 215.597 47.9681 261.19L0 303.771V407H47.9681C96.0046 407 192.009 407 288.014 407C384.018 407 480.023 407 576.027 407C672.032 407 767.968 407 863.973 407C959.977 407 1055.98 407 1151.99 407C1247.99 407 1344 407 1392.03 407H1440V0Z" fill="#FFE4D1"/>
</svg>
